<?xml version="1.0" encoding="UTF-8" standalone="no"?>
<svg
   xmlns:dc="http://purl.org/dc/elements/1.1/"
   xmlns:cc="http://creativecommons.org/ns#"
   xmlns:rdf="http://www.w3.org/1999/02/22-rdf-syntax-ns#"
   xmlns:svg="http://www.w3.org/2000/svg"
   xmlns="http://www.w3.org/2000/svg"
   xmlns:xlink="http://www.w3.org/1999/xlink"
   xmlns:sodipodi="http://sodipodi.sourceforge.net/DTD/sodipodi-0.dtd"
   xmlns:inkscape="http://www.inkscape.org/namespaces/inkscape"
   inkscape:export-ydpi="96"
   inkscape:export-xdpi="96"
   inkscape:export-filename="D:\Google Drive Backup\Coding\Godot\MariasTastyAdventure\UI\UI_sheet.png"
   width="1920"
   height="1080"
   viewBox="0 0 508 285.75"
   version="1.1"
   id="svg8"
   inkscape:version="1.0 (4035a4fb49, 2020-05-01)"
   sodipodi:docname="UI_sheet.svg">
  <defs
     id="defs2">
    <inkscape:perspective
       id="perspective883"
       inkscape:persp3d-origin="254 : 95.25 : 1"
       inkscape:vp_z="508 : 142.875 : 1"
       inkscape:vp_y="0 : 1000 : 0"
       inkscape:vp_x="0 : 142.875 : 1"
       sodipodi:type="inkscape:persp3d" />
    <inkscape:path-effect
       end_linecap_type="zerowidth"
       scale_width="1"
       miter_limit="4"
       linejoin_type="extrp_arc"
       start_linecap_type="zerowidth"
       interpolator_beta="0.2"
       interpolator_type="CubicBezierJohan"
       sort_points="true"
       offset_points="0,0.1322915"
       lpeversion="1"
       is_visible="true"
       id="path-effect867"
       effect="powerstroke" />
    <inkscape:path-effect
       effect="powerstroke"
       id="path-effect958"
       is_visible="true"
       lpeversion="1"
       offset_points="0,0.1322915"
       sort_points="true"
       interpolator_type="CubicBezierJohan"
       interpolator_beta="0.2"
       start_linecap_type="zerowidth"
       linejoin_type="extrp_arc"
       miter_limit="4"
       scale_width="1"
       end_linecap_type="zerowidth" />
    <inkscape:path-effect
       effect="powerstroke"
       id="path-effect952"
       is_visible="true"
       lpeversion="1"
       offset_points="0,0.1322915"
       sort_points="true"
       interpolator_type="CubicBezierJohan"
       interpolator_beta="0.2"
       start_linecap_type="zerowidth"
       linejoin_type="extrp_arc"
       miter_limit="4"
       scale_width="1"
       end_linecap_type="zerowidth" />
    <linearGradient
       inkscape:collect="always"
       id="linearGradient934">
      <stop
         style="stop-color:#87ed8e;stop-opacity:1"
         offset="0"
         id="stop930" />
      <stop
         style="stop-color:#009807;stop-opacity:1"
         offset="1"
         id="stop932" />
    </linearGradient>
    <linearGradient
       inkscape:collect="always"
       id="linearGradient901">
      <stop
         style="stop-color:#0300b1;stop-opacity:1;"
         offset="0"
         id="stop897" />
      <stop
         style="stop-color:#807ee5;stop-opacity:1"
         offset="1"
         id="stop899" />
    </linearGradient>
    <linearGradient
       inkscape:collect="always"
       xlink:href="#linearGradient901"
       id="linearGradient903"
       x1="70.303574"
       y1="34.773808"
       x2="69.547623"
       y2="66.523804"
       gradientUnits="userSpaceOnUse"
       gradientTransform="matrix(0.47220219,0,0,0.47220219,-2.9856868,11.440936)" />
    <radialGradient
       inkscape:collect="always"
       xlink:href="#linearGradient934"
       id="radialGradient936"
       cx="191.54715"
       cy="165.35706"
       fx="191.54715"
       fy="165.35706"
       r="39.410874"
       gradientUnits="userSpaceOnUse"
       gradientTransform="matrix(0.46178576,0,0,0.46178576,218.79465,-43.650296)" />
    <linearGradient
       y2="66.523804"
       x2="69.547623"
       y1="34.773808"
       x1="70.303574"
       gradientTransform="matrix(0.16604286,0,0,0.48224348,18.885569,60.238948)"
       gradientUnits="userSpaceOnUse"
       id="linearGradient857"
       xlink:href="#linearGradient901"
       inkscape:collect="always" />
  </defs>
  <sodipodi:namedview
     id="base"
     pagecolor="#ffffff"
     bordercolor="#666666"
     borderopacity="1.0"
     inkscape:pageopacity="0.0"
     inkscape:pageshadow="2"
     inkscape:zoom="0.51522345"
     inkscape:cx="658.28264"
     inkscape:cy="410.85131"
     inkscape:document-units="mm"
     inkscape:current-layer="layer1"
     inkscape:document-rotation="0"
     showgrid="false"
     inkscape:snap-global="false"
     units="px"
     inkscape:window-width="1920"
     inkscape:window-height="1017"
     inkscape:window-x="1912"
     inkscape:window-y="-8"
     inkscape:window-maximized="1" />
  <metadata
     id="metadata5">
    <rdf:RDF>
      <cc:Work
         rdf:about="">
        <dc:format>image/svg+xml</dc:format>
        <dc:type
           rdf:resource="http://purl.org/dc/dcmitype/StillImage" />
        <dc:title />
      </cc:Work>
    </rdf:RDF>
  </metadata>
  <g
     inkscape:label="button"
     inkscape:groupmode="layer"
     id="layer1">
    <ellipse
       style="fill:url(#linearGradient903);fill-opacity:1;stroke:#00003a;stroke-width:0.833437;stroke-miterlimit:4;stroke-dasharray:none;stroke-opacity:1"
       id="path833"
       cx="30.747255"
       cy="35.000454"
       rx="25.87977"
       ry="7.8531723" />
    <path
       id="path913"
       style="fill:#e5d87e;fill-opacity:1;stroke:#00003a;stroke-width:0.815052;stroke-miterlimit:4;stroke-dasharray:none;stroke-opacity:1"
       d="m 238.36126,5.1990709 a 8.0628079,8.0628079 0 0 0 -8.06274,8.0629701 8.0628079,8.0628079 0 0 0 7.01156,7.99402 22.291292,22.291292 0 0 0 -3.92864,12.63713 22.291292,22.291292 0 0 0 22.29108,22.29131 22.291292,22.291292 0 0 0 22.29131,-22.29131 22.291292,22.291292 0 0 0 -3.88138,-12.56888 8.0628079,8.0628079 0 0 0 0.0871,4.6e-4 8.0628079,8.0628079 0 0 0 8.06297,-8.06274 8.0628079,8.0628079 0 0 0 -8.06297,-8.0629801 8.0628079,8.0628079 0 0 0 -8.06275,8.0629801 8.0628079,8.0628079 0 0 0 0.058,0.9636 22.291292,22.291292 0 0 0 -10.49227,-2.62354 22.291292,22.291292 0 0 0 -9.25639,2.01288 8.0628079,8.0628079 0 0 0 0.008,-0.35294 8.0628079,8.0628079 0 0 0 -8.06274,-8.0629801 z" />
    <circle
       style="fill:#a21919;fill-opacity:1;stroke:#00003a;stroke-width:0.353266;stroke-miterlimit:4;stroke-dasharray:none;stroke-opacity:1"
       id="path926"
       cx="255.67261"
       cy="33.893291"
       r="18.022747" />
    <circle
       r="18.022747"
       cy="32.709229"
       cx="307.24841"
       id="circle928"
       style="fill:url(#radialGradient936);fill-opacity:1;stroke:#00003a;stroke-width:0.353266;stroke-miterlimit:4;stroke-dasharray:none;stroke-opacity:1" />
    <ellipse
       ry="7.8531723"
       rx="25.87977"
       cy="15.486265"
       cx="31.26079"
       id="ellipse938"
       style="fill:#ffffff;fill-opacity:1;stroke:#00003a;stroke-width:0.833437;stroke-miterlimit:4;stroke-dasharray:none;stroke-opacity:1" />
    <path
       d="m 237.64984,57.844461 a 8.0628079,8.0628079 0 0 0 -8.06274,8.06298 8.0628079,8.0628079 0 0 0 7.01155,7.99401 22.291292,22.291292 0 0 0 -3.92863,12.63713 22.291292,22.291292 0 0 0 22.29107,22.291309 22.291292,22.291292 0 0 0 22.29132,-22.291309 22.291292,22.291292 0 0 0 -3.88139,-12.56888 8.0628079,8.0628079 0 0 0 0.0871,4.6e-4 8.0628079,8.0628079 0 0 0 8.06298,-8.06274 8.0628079,8.0628079 0 0 0 -8.06298,-8.06298 8.0628079,8.0628079 0 0 0 -8.06274,8.06298 8.0628079,8.0628079 0 0 0 0.058,0.96361 22.291292,22.291292 0 0 0 -10.49228,-2.62355 22.291292,22.291292 0 0 0 -9.25639,2.01288 8.0628079,8.0628079 0 0 0 0.008,-0.35294 8.0628079,8.0628079 0 0 0 -8.06274,-8.06298 z"
       style="fill:#ffffff;fill-opacity:1;stroke:#00003a;stroke-width:0.815052;stroke-miterlimit:4;stroke-dasharray:none;stroke-opacity:1"
       id="path942" />
    <circle
       r="18.022747"
       cy="86.538696"
       cx="254.9612"
       id="circle944"
       style="fill:#d00000;fill-opacity:1;stroke:#00003a;stroke-width:0.353266;stroke-miterlimit:4;stroke-dasharray:none;stroke-opacity:1" />
    <ellipse
       ry="8.0201683"
       rx="9.100235"
       cy="84.299454"
       cx="30.747253"
       id="ellipse855"
       style="fill:url(#linearGradient857);fill-opacity:1;stroke:#00003a;stroke-width:0.499445;stroke-miterlimit:4;stroke-dasharray:none;stroke-opacity:1" />
    <ellipse
       style="fill:#ffffff;fill-opacity:1;stroke:#00003a;stroke-width:0.499445;stroke-miterlimit:4;stroke-dasharray:none;stroke-opacity:1"
       id="ellipse859"
       cx="30.747253"
       cy="63.244675"
       rx="9.100235"
       ry="8.0201683" />
    <rect
       rx="5"
       ry="5"
       y="168.43825"
       x="5.1353121"
       height="110.92274"
       width="263.44153"
       id="rect863"
       style="fill:#ffffff;fill-opacity:1;stroke:#161624;stroke-width:2.365;stroke-miterlimit:4;stroke-dasharray:none;stroke-opacity:1" />
    <path
       d="m 89.611012,11.811455 a 13.608578,13.608578 0 0 0 -13.60847,13.608474 13.608578,13.608578 0 0 0 13.60847,13.60847 13.608578,13.608578 0 0 0 6.03219,-1.409732 l 6.734478,6.331913 c 2.01807,1.897436 5.05446,1.92278 6.80837,0.05736 1.75391,-1.865421 1.5411,-4.894394 -0.47698,-6.791832 L 102.04488,30.95034 A 13.608578,13.608578 0 0 0 103.22,25.419929 13.608578,13.608578 0 0 0 89.611012,11.811455 Z"
       style="fill:#e8f900;fill-opacity:1;stroke:#161624;stroke-width:1.465;stroke-miterlimit:4;stroke-dasharray:none;stroke-opacity:1"
       id="path869" />
    <path
       sodipodi:nodetypes="ssssccssccs"
       d="m 130.53368,8.9476407 c -2.07671,0 -6.80325,2.0975483 -7.21339,4.1333573 l -5.00504,24.843443 c -0.27377,1.358944 0.747,2.58874 1.86004,3.237346 1.6e-4,8.7e-5 2e-4,1.87e-4 4e-4,3.89e-4 0.42493,0.429314 0.96056,0.762311 1.58148,0.950355 l 43.30578,13.115955 c 1.98756,0.601959 4.07195,-0.513672 4.67391,-2.50123 l 7.31268,-24.144822 C 176.1701,22.5193 173.2468,16.788242 167.31196,8.9476507 Z"
       style="fill:#e2e9ff;fill-opacity:1;stroke:#161624;stroke-width:1.77307;stroke-miterlimit:4;stroke-dasharray:none;stroke-opacity:1"
       id="rect876" />
  </g>
</svg>
